<svg xmlns="http://www.w3.org/2000/svg" width="792.76" height="699.81" viewBox="0 0 792.76 699.81">
  <g id="Group_1574" data-name="Group 1574" transform="translate(-59.012 -0.186)">
    <g id="Group_1573" data-name="Group 1573" transform="translate(28.091 334.088) rotate(-30)">
      <path id="Path_877" data-name="Path 877" d="M587.575,156.107c-17.565,6.722-28.866,7.139-39.992-8.582-8.845-12.5-15.213-20.071-29.58-27.509-13.487-6.984-26.923-10.928-43.3-8.662-17.026,2.352-30.51,8.764-46.849-1.385-15.341-9.528-21.8-20.359-41.285-10.549-14.039,7.069-22.445,16.84-39.46,17.461-36.032,1.317-43.843-34.632-69.571-49.491-21.328-12.317-25.606,6.618-40.475,15.84-14.358,8.906-35.7,4.917-49.7-2.923-28.76-16.116-57.2-55.091-91.937-59.1C63.515,17.518,34.015,55.767,0,35.285A161.3,161.3,0,0,0,37.116,16.536C44.618,31.125,61.977,12.2,71.2,8.974,83.282,4.744,99.925-1,113.767.149c32.2,2.675,43.291,28.015,68.268,44.013,12.435,7.965,30.414,11.193,44.607,5.527,13.7-5.466,17.153-22.362,31.815-24.659,25.255-3.957,56.581,34.005,72.373,48.8,28.853,27.023,47.919-22.611,80.469-17.222,14.945,2.473,23.155,12.627,39.791,14.3,15.978,1.6,29.76,1.263,43.988,8.4,17.091,8.571,32.117,20.231,49.7,27.768,13.534,5.8,47.462,20.946,60.117,10.767Z" transform="translate(0 261.994)" fill="#c9312e"/>
      <path id="Path_878" data-name="Path 878" d="M559.3,136.679c-26.364,2.7-61.9-21.545-87.682-30.618C442.226,95.722,407.334,77.4,375.15,75.394,339.521,73.176,309.572,92.1,276,71.376c-12.48-7.7-20.292-24.395-36.707-24.588-10.376-.12-7.448,4.178-16.2,7.631-6.691,2.641-18.083,1.175-25.3.72a135.165,135.165,0,0,1-46.055-11.06c-12.909-5.657-23.811-15.8-37.7-19.37-32.765-8.413-61.724-2.487-87.9,15.1C17.1,45.878,11.24,48.31,0,44.688c2.923-5.223,9.3-9.362,14.414-13.019,7.467-5.343,10.756-4.323,17.3-6.192C46.427,21.277,51.757,8.1,67.2,3.738c31.284-8.84,65.483-.81,93.463,11.69,21.732,9.71,50.853,17.306,74.41,20.644C240.4,22,254.086,17.281,267.822,24.949c16.467,9.194,21.793,18.5,41.832,21.738,34.066,5.5,69.443,5.9,102.916,13.5,27.815,6.32,57.321,12.735,84.548,20.017,21.686,5.8,58.953,11.622,75.426,25.858Z" transform="translate(53.751 222.103)" fill="#c9312e"/>
      <path id="Path_879" data-name="Path 879" d="M500.2,115.445c-17.032-.974-35.332-12.979-51.966-16.983-17.158-4.132-34.059-5.608-50.721-11-33.245-10.764-65.5-9.586-101.1-13.156a192.14,192.14,0,0,1-51.174-12.2c-13.79-5.446-23.647-15.706-36.658-22.031-5.438-2.644-15.265-6.559-21.246-5.9-9.824,1.073-5.325,6.337-12.384,10.259-10.514,5.844-37.6.055-48.753-1.648C83.008,36.184,45.677,20.688,0,18.614,19.926-7.323,54.731-.355,84.472,5.386c18.167,3.507,36.066,8.958,54,12.465,12.319,2.41,38.2,12.452,49.9,9.589,15.33-3.747,12.478-20.34,34.667-12.459,14.367,5.1,27.868,14.223,42.569,19.367C298.258,45.77,335.09,52.021,369.825,55.189c26.783,2.442,55.073.532,80.475,8.56,21.645,6.843,40.776,25.152,63.145,26.818Z" transform="translate(139.343 184.972)" fill="#c9312e"/>
      <path id="Path_880" data-name="Path 880" d="M250.583,54.541C239.556,52.756,227.6,47.4,216.958,43.953c-9.8-3.179-22.171-11.991-32.267-12.215-9.916-.218-3.441,3.007-9.938,6.853-4.544,2.69-12.12,2.137-17.4,2.316-13.357.454-27.083.432-39.779-2.312C80.258,30.528,36.5,8.144,0,30.07,3.532,24.04,15.814,14.1,22.276,9.511,31.84,2.726,44.712.109,56.474,0,81.494-.224,106.9,11.878,129.841,19.9c11.23,3.925,23.143,7.7,35.152,8.093,6.115.2,11.957-.157,16.811-3.588,3.887-2.75,5.385-10.01,9.365-12.018,8.71-4.393,26.077,6.008,34.959,8.608,11.841,3.465,24.058,6.573,34.564,12.559,2.612,1.489,5.589,2.382,8.118,3.95-3.453,7.588-9.256,13.864-17.462,17.04" transform="translate(179.567 142.301)" fill="#c9312e"/>
      <path id="Path_881" data-name="Path 881" d="M240.607,54.564c-14.174-.074-24.08-1.418-35.749-8.789-12.725-8.041-17.126-8.866-30.736-7-23.274,3.19-55.487,1.467-77.949-3.031C79.392,32.385,64.058,24.637,47.262,22.986,30.169,21.306,15.841,25.814,0,27.188,2.278,12.322,6.553,9.809,21.281,7.362,34.065,5.237,44.5-.448,57.959.028c23.847.844,49.268,17.428,72.6,23.515,17.277,4.507,38.772-3.24,55.637,2.926,4.8-5.387,4.7-9.227,11.615-8.5,4.331.452,12.263,6.465,16.646,8.054,13.3,4.822,30.8,5.92,42.962,12.04" transform="translate(223.932 101.376)" fill="#c9312e"/>
      <path id="Path_882" data-name="Path 882" d="M248.981,59.987c-24.246-10.234-42.045-17.32-69.161-11.841-12.863,2.6-28.814,6.3-42.414,5.383C124.552,52.663,114.2,47,102.828,41.489,68.356,24.771,31.419,16.66,0,43.406,1.589,18.634,25.882,5.734,48.758,1.9c12.9-2.162,24.871-3.637,37.447,2.253,11.823,5.536,21.658,12.623,34.388,17.084,11.687,4.1,24.03,7.992,36.683,7.193,6.731-.426,12.845-2.9,19.87-2.887,6.28.01,17.416,1.707,23.69.717,14.315-2.259,5.349-7.535,24.836-3.229,11.34,2.5,28.558,7.576,38.784,13.1.993.536,2.137,1.184,2.865,1.614" transform="translate(240.778 55.767)" fill="#c9312e"/>
      <path id="Path_883" data-name="Path 883" d="M259.7,70.389c-23.443-8.728-40.575-23.972-66.486-16.5-13.7,3.949-20.613,4.881-33.586,1.251-12.619-3.53-22.665,2.586-35.957.738-23.039-3.2-42.084-18.033-64.192-23.7-9.683-2.482-24.56-3.7-34.367-1.239C14.841,33.521,8.874,42,.023,46.634-.487,39.149,7.6,24.582,11.485,18,18.56,6,29.188,2.564,42.665.764c24.292-3.244,52.1,4.177,72.6,15.8,10.824,6.14,20.915,12.953,34.389,11.521,13.15-1.4,23.393-4.631,37.447-2.229,5.576.953,13.087,3.846,18.953,2.046,5.516-1.691,6.659-7.6,13.908-7.82,9.9-.3,24.993,9.62,33.433,13.886,7.681,3.881,15.47,9.211,23.882,12.021" transform="translate(265.602 0)" fill="#c9312e"/>
      <path id="Path_884" data-name="Path 884" d="M67.135,12.2c-9.445,8.883-9.781,20.9-23.69,27.269A101.9,101.9,0,0,1,0,47.97,148.018,148.018,0,0,1,2.178,22.6C28.69,22.056,57.666,30.772,67.9,0" transform="translate(200.237 33.947)" fill="#c9312e"/>
      <path id="Path_885" data-name="Path 885" d="M45.794,10.047c-7.806,6.1-9.1,17.008-15.956,23.768C23.693,39.879,8.512,40.03,0,38.337c.716-6.628,1.085-12.862,2.233-19.678,9.392.49,19.967,3.148,28.657.358C39.066,16.391,43.889,6.378,48.468,0" transform="translate(197.508 86.69)" fill="#c9312e"/>
      <path id="Path_886" data-name="Path 886" d="M47.817.192c-9.871-2.777-15.415,25.7-30.587,16.28C15.818,23.678,6.38,30.4,0,33.919c12.2,6.239,20.393-.1,28.043-10.039,3.194-4.15,8.813-12.744,13.279-15.8,4.786-3.27,3.945-1.83,8.405-5.381" transform="translate(178.671 122.738)" fill="#c9312e"/>
      <path id="Path_887" data-name="Path 887" d="M53.073,10.764c-8.009,2.376-13.124,13.01-21.1,16.415C24.923,30.186,6.152,28.419,0,24.487a55.876,55.876,0,0,0,14.871-8.254c1.725-1.346,3.821-4.183,5.8-5.015,3.194-1.339,5.435.248,9.1.98C43.409,14.916,50.2,10.367,60.417,2.251A29.438,29.438,0,0,0,63.007,0" transform="translate(128.327 160.604)" fill="#c9312e"/>
      <path id="Path_888" data-name="Path 888" d="M43.14.325C35.635,3.356,22.925,2.466,15.723,0A120.869,120.869,0,0,1,0,22.5C17.971,28.637,31.446,9.441,43.14.325" transform="translate(92.789 205.488)" fill="#c9312e"/>
      <path id="Path_889" data-name="Path 889" d="M318.491,8.573c-12.8-.756-22.5.618-35.162-3.049C271.465,2.09,258.771.8,246.732,4.111c-25.118,6.9-45.393,13.735-72.478,10.884C154.871,12.954,130.417,6.178,111.938,0L0,153.482s50.827,20.141,84.554,18.7c0,0,142.086,10.047,149.262,35.162Z" transform="translate(428.064 45.466)" fill="#323593"/>
      <path id="Path_890" data-name="Path 890" d="M0,10.377l5.994.784,2.751,5.382,2.6-5.459,5.969-.954L12.924,5.972,13.86,0,8.55,2.888,3.161.154,4.268,6.1Z" transform="translate(714.248 65.128)" fill="#fff"/>
      <path id="Path_891" data-name="Path 891" d="M0,9.951l5.823,1.422,1.839,5.7,3.488-5.215,6.087-.329L13.569,6.886,15.49.978,9.737,3.322,4.837,0,4.95,6.095Z" transform="translate(695.956 103.294)" fill="#fff"/>
      <path id="Path_892" data-name="Path 892" d="M0,10.176l5.887,1.133L8,16.917l3.227-5.38,6.063-.628L13.4,6.448l1.629-6L9.4,3.077,4.342,0l.414,6.081Z" transform="translate(680.512 136.776)" fill="#fff"/>
      <path id="Path_893" data-name="Path 893" d="M0,11.878l5.99.233,2.94,5.225,2.378-5.8,5.9-1.536L12.687,6.171,13.393,0,8.222,3.444,2.758,1.165,4.084,7.114Z" transform="translate(663.398 174.744)" fill="#fff"/>
      <path id="Path_894" data-name="Path 894" d="M0,9.963,5.827,11.37l1.857,5.7,3.471-5.225,6.086-.347L13.561,6.861l1.9-5.914L9.718,3.307,4.809,0l.132,6.094Z" transform="translate(647.365 215.001)" fill="#fff"/>
      <path id="Path_895" data-name="Path 895" d="M0,9.122l5.548,2.27.973,5.915,4.222-4.64,6.069.578L13.874,8.1l2.777-5.556L10.613,4.01,6.261,0,5.468,6.043Z" transform="translate(603.05 201.913)" fill="#fff"/>
      <path id="Path_896" data-name="Path 896" d="M0,9.122l5.548,2.271.974,5.914,4.222-4.641,6.068.58L13.874,8.1l2.777-5.556L10.613,4.011,6.261,0,5.469,6.044Z" transform="translate(591.09 180.385)" fill="#fff"/>
      <path id="Path_897" data-name="Path 897" d="M0,9.121l5.548,2.271.974,5.914,4.221-4.64,6.069.578L13.874,8.1l2.777-5.557L10.614,4.011,6.261,0,5.47,6.044Z" transform="translate(581.7 158.42)" fill="#fff"/>
      <path id="Path_898" data-name="Path 898" d="M0,9.122l5.549,2.27.974,5.914,4.221-4.641,6.069.581-2.938-5.14L16.651,2.55,10.614,4.013,6.261,0,5.469,6.044Z" transform="translate(571.175 140.24)" fill="#fff"/>
      <path id="Path_899" data-name="Path 899" d="M0,9.123l5.548,2.269.973,5.914,4.222-4.639,6.068.579-2.938-5.14L16.651,2.55,10.614,4.013,6.261,0,5.469,6.045Z" transform="translate(563.999 123.496)" fill="#fff"/>
      <path id="Path_900" data-name="Path 900" d="M0,9.121l5.549,2.27.974,5.915,4.221-4.64,6.069.579L13.875,8.1l2.776-5.556L10.614,4.012,6.261,0,5.469,6.044Z" transform="translate(554.909 107.232)" fill="#fff"/>
      <path id="Path_901" data-name="Path 901" d="M0,9.123l5.548,2.269.974,5.915,4.222-4.641,6.069.58L13.874,8.1l2.777-5.556L10.613,4.012,6.261,0,5.469,6.045Z" transform="translate(545.82 91.923)" fill="#fff"/>
      <path id="Path_902" data-name="Path 902" d="M0,9.123l5.549,2.269.973,5.914,4.222-4.641,6.069.581L13.875,8.105,16.651,2.55,10.614,4.013,6.261,0,5.469,6.045Z" transform="translate(536.251 77.571)" fill="#fff"/>
      <path id="Path_903" data-name="Path 903" d="M0,9.122l5.548,2.27.974,5.915,4.222-4.64,6.068.579L13.874,8.1,16.65,2.548,10.613,4.012,6.261,0,5.469,6.044Z" transform="translate(536.73 56.521)" fill="#fff"/>
      <path id="Path_904" data-name="Path 904" d="M0,9.121l5.547,2.27.974,5.915,4.222-4.639,6.068.577L13.874,8.105,16.65,2.548,10.613,4.012,6.261,0,5.468,6.044Z" transform="translate(515.203 88.095)" fill="#fff"/>
      <path id="Path_905" data-name="Path 905" d="M0,9.121l5.548,2.271.974,5.914,4.222-4.639,6.068.578L13.874,8.1l2.777-5.557L10.613,4.011,6.261,0,5.469,6.043Z" transform="translate(521.899 105.318)" fill="#fff"/>
      <path id="Path_906" data-name="Path 906" d="M0,9.121l5.547,2.271.975,5.915,4.221-4.641,6.069.579L13.874,8.1l2.777-5.556L10.613,4.012,6.261,0,5.469,6.043Z" transform="translate(530.989 123.019)" fill="#fff"/>
      <path id="Path_907" data-name="Path 907" d="M0,9.121l5.548,2.271.973,5.915,4.222-4.641,6.069.579L13.874,8.1,16.65,2.549,10.613,4.012,6.261,0,5.468,6.043Z" transform="translate(537.209 140.241)" fill="#fff"/>
      <path id="Path_908" data-name="Path 908" d="M0,9.122l5.547,2.271.974,5.914,4.221-4.64,6.069.578L13.873,8.1,16.65,2.549,10.612,4.012,6.26,0,5.468,6.044Z" transform="translate(546.366 156.667)" fill="#fff"/>
      <path id="Path_909" data-name="Path 909" d="M0,9.121l5.548,2.27.974,5.915,4.222-4.641,6.069.579L13.874,8.1l2.777-5.556L10.613,4.01,6.261,0,5.469,6.044Z" transform="translate(553.542 176.761)" fill="#fff"/>
      <path id="Path_910" data-name="Path 910" d="M0,9.122l5.548,2.27.974,5.915,4.221-4.64,6.069.58-2.938-5.14L16.651,2.55,10.613,4.013,6.261,0,5.469,6.045Z" transform="translate(563.11 197.33)" fill="#fff"/>
      <path id="Path_911" data-name="Path 911" d="M0,9.121l5.547,2.271L6.522,17.3l4.221-4.639,6.069.578L13.874,8.1,16.65,2.547,10.613,4.011,6.261,0,5.469,6.042Z" transform="translate(525.794 189.678)" fill="#fff"/>
      <path id="Path_912" data-name="Path 912" d="M0,9.121l5.547,2.27.974,5.915,4.222-4.641,6.068.579L13.874,8.1,16.65,2.548,10.613,4.011,6.261,0,5.469,6.043Z" transform="translate(517.66 171.02)" fill="#fff"/>
      <path id="Path_913" data-name="Path 913" d="M0,9.122l5.547,2.271.974,5.914,4.222-4.641,6.068.579L13.874,8.1,16.65,2.548,10.613,4.011,6.261,0,5.468,6.044Z" transform="translate(511.441 152.362)" fill="#fff"/>
      <path id="Path_914" data-name="Path 914" d="M0,9.122l5.547,2.27.974,5.915,4.221-4.641,6.069.578L13.874,8.1,16.65,2.548,10.613,4.012,6.261,0,5.469,6.044Z" transform="translate(503.307 135.14)" fill="#fff"/>
      <path id="Path_915" data-name="Path 915" d="M0,9.121l5.547,2.271.974,5.915,4.221-4.641,6.069.579L13.874,8.1,16.65,2.548,10.612,4.012,6.261,0,5.469,6.043Z" transform="translate(497.088 117.918)" fill="#fff"/>
      <path id="Path_916" data-name="Path 916" d="M0,9.123l5.547,2.269L6.521,17.3l4.222-4.639,6.069.58L13.874,8.1l2.777-5.556L10.613,4.012,6.261,0,5.468,6.045Z" transform="translate(492.331 187.437)" fill="#fff"/>
      <path id="Path_917" data-name="Path 917" d="M0,9.122l5.547,2.269.974,5.915,4.221-4.641,6.069.581L13.873,8.1,16.65,2.549,10.612,4.012,6.26,0,5.468,6.045Z" transform="translate(484.911 165.208)" fill="#fff"/>
      <path id="Path_918" data-name="Path 918" d="M0,9.123l5.547,2.27.974,5.914,4.222-4.641,6.068.58L13.874,8.1,16.65,2.549,10.613,4.013,6.261,0,5.468,6.045Z" transform="translate(477.329 143.585)" fill="#fff"/>
      <path id="Path_919" data-name="Path 919" d="M0,9.122l5.547,2.271.975,5.914,4.222-4.641,6.068.579L13.874,8.1,16.65,2.548,10.612,4.012,6.261,0,5.469,6.044Z" transform="translate(459.444 174.862)" fill="#fff"/>
      <path id="Path_920" data-name="Path 920" d="M0,9.966l5.827,1.4,1.857,5.7,3.471-5.224,6.086-.345L13.561,6.862l1.9-5.913L9.718,3.309,4.809,0l.132,6.1Z" transform="translate(632.534 188.688)" fill="#fff"/>
      <path id="Path_921" data-name="Path 921" d="M0,9.965l5.828,1.4,1.856,5.7,3.471-5.225,6.087-.344L13.56,6.862l1.9-5.913L9.718,3.308,4.81,0,4.94,6.095Z" transform="translate(622.009 164.29)" fill="#fff"/>
      <path id="Path_922" data-name="Path 922" d="M0,9.966l5.828,1.4,1.856,5.7,3.471-5.226,6.087-.345L13.561,6.862l1.9-5.913L9.719,3.308,4.81,0,4.94,6.1Z" transform="translate(611.484 147.067)" fill="#fff"/>
      <path id="Path_923" data-name="Path 923" d="M0,9.964l5.827,1.4,1.857,5.7,3.471-5.225,6.086-.346L13.561,6.86l1.9-5.911L9.718,3.308,4.809,0l.132,6.095Z" transform="translate(600.96 127.932)" fill="#fff"/>
      <path id="Path_924" data-name="Path 924" d="M0,9.964,5.829,11.37l1.856,5.7,3.471-5.225,6.087-.346L13.561,6.861l1.9-5.913L9.719,3.308,4.81,0l.131,6.094Z" transform="translate(590.509 110.125)" fill="#fff"/>
      <path id="Path_925" data-name="Path 925" d="M0,9.962l5.828,1.406,1.856,5.7,3.471-5.225,6.086-.348L13.561,6.859l1.9-5.912L9.718,3.308,4.81,0l.131,6.094Z" transform="translate(580.866 93.009)" fill="#fff"/>
      <path id="Path_926" data-name="Path 926" d="M0,9.965l5.827,1.4,1.856,5.7,3.472-5.225,6.086-.344L13.561,6.862l1.9-5.914L9.718,3.308,4.809,0,4.94,6.1Z" transform="translate(570.417 75.201)" fill="#fff"/>
      <path id="Path_927" data-name="Path 927" d="M0,9.964l5.828,1.4,1.856,5.7,3.472-5.224,6.087-.346L13.561,6.861l1.9-5.912L9.719,3.308,4.81,0,4.94,6.095Z" transform="translate(561.805 56.544)" fill="#fff"/>
      <path id="Path_928" data-name="Path 928" d="M0,12.587l5.994-.092,3.218,5.056,2.06-5.925L17.08,9.773,12.358,6.2,12.728,0,7.752,3.718,2.172,1.739l1.647,5.87Z" transform="translate(651.7 152.028)" fill="#fff"/>
      <path id="Path_929" data-name="Path 929" d="M0,11.275l5.975.5L8.68,17.121l2.633-5.7,5.961-1.272L12.927,6.134,13.9,0,8.587,3.211,3.229.693l1.061,6Z" transform="translate(639.284 130.935)" fill="#fff"/>
      <path id="Path_930" data-name="Path 930" d="M0,12.979,5.988,12.7l3.375,4.953,1.873-5.987,5.747-2.033L12.153,6.21,12.329,0,7.471,3.873,1.834,2.067,3.662,7.884Z" transform="translate(628.42 113.154)" fill="#fff"/>
      <path id="Path_931" data-name="Path 931" d="M0,12.09l5.993.138L9.015,17.4,11.3,11.561l5.874-1.629-4.581-3.75L13.2,0,8.087,3.525l-5.5-2.193,1.42,5.929Z" transform="translate(617.545 95.259)" fill="#fff"/>
      <path id="Path_932" data-name="Path 932" d="M0,11.924l5.991.213L8.948,17.35l2.358-5.813L17.2,9.979l-4.535-3.8L13.35,0,8.191,3.46,2.72,1.2,4.067,7.145Z" transform="translate(606.007 80.005)" fill="#fff"/>
      <path id="Path_933" data-name="Path 933" d="M0,10.6l5.943.784,2.446,5.472,2.9-5.563,6.016-.986L13.157,6.081,14.429,0,8.962,2.952,3.732.181,4.5,6.228Z" transform="translate(593.264 64.667)" fill="#fff"/>
      <path id="Path_934" data-name="Path 934" d="M0,9l5.5,2.378.856,5.933,4.313-4.557,6.056.7-2.837-5.2,2.886-5.5L10.712,4.1,6.438,0,5.528,6.027Z" transform="translate(668.369 117.419)" fill="#fff"/>
      <path id="Path_935" data-name="Path 935" d="M0,9.718,5.753,11.4l1.578,5.782,3.721-5.05,6.1-.052L13.694,7.277l2.189-5.815L10.029,3.541,5.285,0,5.121,6.094Z" transform="translate(655.988 96.642)" fill="#fff"/>
      <path id="Path_936" data-name="Path 936" d="M0,9.93l5.818,1.446,1.815,5.713,3.509-5.2,6.088-.3L13.582,6.922l1.945-5.9L9.766,3.343,4.878,0l.088,6.095Z" transform="translate(647.147 79.354)" fill="#fff"/>
      <path id="Path_937" data-name="Path 937" d="M0,8.922l5.475,2.442.788,5.942L10.628,12.8l6.048.766L13.9,8.338l2.949-5.467-6.08,1.275L6.542,0,5.562,6.017Z" transform="translate(633.913 61.883)" fill="#fff"/>
      <path id="Path_938" data-name="Path 938" d="M0,10.179,5.887,11.31l2.12,5.606,3.224-5.382,6.063-.631L13.4,6.444l1.627-6L9.4,3.075,4.337,0l.416,6.082Z" transform="translate(682.707 80.578)" fill="#fff"/>
      <path id="Path_939" data-name="Path 939" d="M0,9.85l5.793,1.54,1.723,5.742,3.592-5.144,6.093-.206-3.573-4.72L15.669,1.2l-5.8,2.226L5.037,0,5.028,6.1Z" transform="translate(669.481 58.437)" fill="#fff"/>
    </g>
    <rect id="Rectangle_1745" data-name="Rectangle 1745" width="792.76" height="469.079" transform="translate(59.012 94.908)" fill="none"/>
  </g>
</svg>
