<?xml version="1.0" encoding="utf-8"?>
<!-- Generator: Adobe Illustrator 23.0.4, SVG Export Plug-In . SVG Version: 6.00 Build 0)  -->
<svg version="1.1" id="Layer_1" xmlns="http://www.w3.org/2000/svg" xmlns:xlink="http://www.w3.org/1999/xlink" x="0px" y="0px"
	 viewBox="0 0 403 183" style="enable-background:new 0 0 403 183;" xml:space="preserve">
<style type="text/css">
	.st0{fill:#969E9E;}
	.st1{fill:none;stroke:#969E9E;stroke-width:14;stroke-miterlimit:10;}
	.st2{fill:none;stroke:#F0A3A3;stroke-width:14;stroke-miterlimit:10;}
	.st3{fill:#F0A3A3;}
	.st4{fill:#A3F0A8;}
	.st5{fill:none;stroke:#A3F0A8;stroke-width:14;stroke-miterlimit:10;}
</style>
<g>
	<g>
		<path class="st4" d="M111.61,60.28l10.02,14.68l9.97-14.68h29.03l-24.66,36.5v28.27h-28.69V96.78l-24.7-36.5H111.61z"/>
		<path class="st4" d="M224.41,60.28l22.49,64.77h-28.65l-3.73-10.95h-21.05l-3.73,10.95h-28.69l22.49-64.77H224.41z M198.69,98.82
			h10.61l-5.22-15.83h-0.17L198.69,98.82z"/>
		<path class="st4" d="M276.4,60.28l10.02,14.68l9.97-14.68h29.03l-24.66,36.5v28.27h-28.69V96.78l-24.7-36.5H276.4z"/>
	</g>
	<path class="st5" d="M362.99,169.16H45.01c-12.16,0-22.01-9.86-22.01-22.01V38.18c0-12.16,9.86-22.01,22.01-22.01h317.97
		c12.16,0,22.01,9.86,22.01,22.01v108.97C385,159.31,375.14,169.16,362.99,169.16z"/>
</g>
</svg>
