<?xml version="1.0" encoding="utf-8"?>
<!-- Generator: Adobe Illustrator 23.0.4, SVG Export Plug-In . SVG Version: 6.00 Build 0)  -->
<svg version="1.1" id="Layer_1" xmlns="http://www.w3.org/2000/svg" xmlns:xlink="http://www.w3.org/1999/xlink" x="0px" y="0px"
	 viewBox="0 0 399 183" style="enable-background:new 0 0 399 183;" xml:space="preserve">
<style type="text/css">
	.st0{fill:#969E9E;}
	.st1{fill:none;stroke:#969E9E;stroke-width:14;stroke-miterlimit:10;}
	.st2{fill:none;stroke:#F0A3A3;stroke-width:14;stroke-miterlimit:10;}
	.st3{fill:#F0A3A3;}
	.st4{fill:#A3F0A8;}
	.st5{fill:none;stroke:#A3F0A8;stroke-width:14;stroke-miterlimit:10;}
</style>
<g>
	<g>
		<path class="st0" d="M127.64,61.07c6.88,0,13.01,1.35,18.39,4.06c5.38,2.71,9.56,6.64,12.52,11.8c2.96,5.13,4.44,10.64,4.44,16.53
			c0,6-1.52,11.56-4.57,16.66c-2.99,5.05-7.23,8.89-12.73,11.54c-5.47,2.62-11.7,3.93-18.69,3.93H95.38V61.07H127.64z M123.92,100.9
			h0.76c3.44,0,5.92-0.6,7.44-1.8c1.52-1.2,2.28-3.16,2.28-5.9c0-2.4-0.73-4.24-2.18-5.52c-1.45-1.28-3.67-1.92-6.66-1.92h-1.65
			V100.9z"/>
		<path class="st0" d="M192.33,61.07l14.88,21.56h0.17V61.07h28.58v65.03h-21.65l-13.7-20.08h-0.17v19.58h-28.54V61.07H192.33z"/>
		<path class="st0" d="M271.44,61.07l7.19,21.4h0.17l7.19-21.4h28.5l-21.9,64.52h-27.7l-21.94-64.52H271.44z"/>
	</g>
	<path class="st1" d="M355.77,170.08H44.09c-13.84,0-25.16-11.32-25.16-25.16V42.24c0-13.84,11.32-25.16,25.16-25.16h311.69
		c13.84,0,25.16,11.32,25.16,25.16v102.69C380.93,158.76,369.61,170.08,355.77,170.08z"/>
</g>
</svg>
