<?xml version="1.0" encoding="utf-8"?>
<!-- Generator: Adobe Illustrator 23.0.4, SVG Export Plug-In . SVG Version: 6.00 Build 0)  -->
<svg version="1.1" id="Layer_1" xmlns="http://www.w3.org/2000/svg" xmlns:xlink="http://www.w3.org/1999/xlink" x="0px" y="0px"
	 viewBox="0 0 399 183" style="enable-background:new 0 0 399 183;" xml:space="preserve">
<style type="text/css">
	.st0{fill:#969E9E;}
	.st1{fill:none;stroke:#969E9E;stroke-width:14;stroke-miterlimit:10;}
	.st2{fill:none;stroke:#F0A3A3;stroke-width:14;stroke-miterlimit:10;}
	.st3{fill:#F0A3A3;}
	.st4{fill:#A3F0A8;}
	.st5{fill:none;stroke:#A3F0A8;stroke-width:14;stroke-miterlimit:10;}
</style>
<g>
	<path class="st2" d="M355.26,172.15H43.57c-13.84,0-25.16-11.32-25.16-25.16V44.31c0-13.84,11.32-25.16,25.16-25.16h311.69
		c13.84,0,25.16,11.32,25.16,25.16V147C380.42,160.83,369.1,172.15,355.26,172.15z"/>
	<g>
		<path class="st3" d="M112.69,63.44l14.74,21.36h0.17V63.44h28.31v64.42h-21.44l-13.57-19.89h-0.17v19.39H92.46V63.44H112.69z"/>
		<path class="st3" d="M224.69,63.44l22.2,63.91h-28.27l-3.69-10.81h-20.77l-3.69,10.81h-28.31l22.2-63.91H224.69z M199.31,101.47
			h10.47l-5.15-15.62h-0.17L199.31,101.47z"/>
		<path class="st3" d="M276,63.44l9.88,14.49l9.84-14.49h28.65l-24.33,36.02v27.89h-28.31V99.46l-24.38-36.02H276z"/>
	</g>
</g>
</svg>
